<svg width="32" height="32" viewBox="0 0 32 32" fill="none" xmlns="http://www.w3.org/2000/svg">
<path d="M14.626 2.52398C14.9973 2.17291 15.489 1.97729 16 1.97729C16.511 1.97729 17.0027 2.17291 17.374 2.52398L27.062 11.682C27.662 12.248 28 13.038 28 13.862V25.002C28 25.7976 27.6839 26.5607 27.1213 27.1233C26.5587 27.6859 25.7956 28.002 25 28.002H21C20.6059 28.002 20.2156 27.9243 19.8515 27.7734C19.4874 27.6225 19.1566 27.4014 18.878 27.1226C18.5994 26.8438 18.3784 26.5129 18.2278 26.1486C18.0771 25.7844 17.9997 25.3941 18 25V20C18 19.7348 17.8946 19.4804 17.7071 19.2929C17.5196 19.1053 17.2652 19 17 19H15C14.7348 19 14.4804 19.1053 14.2929 19.2929C14.1054 19.4804 14 19.7348 14 20V25C14 25.7956 13.6839 26.5587 13.1213 27.1213C12.5587 27.6839 11.7956 28 11 28H7C6.20435 28 5.44129 27.6839 4.87868 27.1213C4.31607 26.5587 4 25.7956 4 25V13.86C4 13.036 4.34 12.246 4.94 11.68L14.626 2.52398ZM16 3.97598L6.312 13.136C6.21365 13.2292 6.13528 13.3415 6.08164 13.4659C6.02801 13.5904 6.00023 13.7245 6 13.86V25C6 25.2652 6.10536 25.5196 6.29289 25.7071C6.48043 25.8946 6.73478 26 7 26H11C11.2652 26 11.5196 25.8946 11.7071 25.7071C11.8946 25.5196 12 25.2652 12 25V20C12 19.2043 12.3161 18.4413 12.8787 17.8787C13.4413 17.3161 14.2044 17 15 17H17C17.7956 17 18.5587 17.3161 19.1213 17.8787C19.6839 18.4413 20 19.2043 20 20V25C20 25.2652 20.1054 25.5196 20.2929 25.7071C20.4804 25.8946 20.7348 26 21 26H25C25.2652 26 25.5196 25.8946 25.7071 25.7071C25.8946 25.5196 26 25.2652 26 25V13.86C26 13.7241 25.9724 13.5897 25.9188 13.4649C25.8651 13.34 25.7866 13.2275 25.688 13.134L16 3.97598Z" fill="#848484"/>
</svg>
