<svg width="44" height="44" viewBox="0 0 44 44" fill="none" xmlns="http://www.w3.org/2000/svg">
<path d="M27.5 11C27.5 7.96243 25.0376 5.5 22 5.5C18.9624 5.5 16.5 7.96243 16.5 11V20.1667C16.5 23.2042 18.9624 25.6667 22 25.6667C25.0376 25.6667 27.5 23.2042 27.5 20.1667V11Z" stroke="black" stroke-width="1.5" stroke-linecap="round" stroke-linejoin="round"/>
<path d="M34.8334 20.1667C34.8334 21.852 34.5014 23.5208 33.8565 25.0778C33.2115 26.6348 32.2662 28.0495 31.0746 29.2412C29.8829 30.4329 28.4681 31.3782 26.9111 32.0231C25.3541 32.6681 23.6853 33 22 33M22 33C20.3147 33 18.6459 32.6681 17.0889 32.0231C15.5319 31.3782 14.1172 30.4329 12.9255 29.2412C11.7338 28.0495 10.7885 26.6348 10.1436 25.0778C9.49863 23.5208 9.16669 21.852 9.16669 20.1667M22 33V38.5" stroke="black" stroke-width="1.5" stroke-linecap="round" stroke-linejoin="round"/>
</svg>
