<svg width="44" height="44" viewBox="0 0 44 44" fill="none" xmlns="http://www.w3.org/2000/svg">
<path d="M22 40.3334C11.8745 40.3334 3.66669 32.1255 3.66669 22C3.66669 11.8745 11.8745 3.66669 22 3.66669C32.1255 3.66669 40.3334 11.8745 40.3334 22C40.3334 32.1255 32.1255 40.3334 22 40.3334Z" stroke="black" stroke-width="1.5" stroke-linecap="round" stroke-linejoin="round"/>
<path d="M30.25 26.5834C30.25 26.5834 27.5 30.25 22 30.25C16.5 30.25 13.75 26.5834 13.75 26.5834" stroke="black" stroke-width="1.5" stroke-linecap="round" stroke-linejoin="round"/>
<path d="M28.4167 16.5C28.1736 16.5 27.9404 16.4034 27.7685 16.2315C27.5966 16.0596 27.5 15.8265 27.5 15.5834C27.5 15.3402 27.5966 15.1071 27.7685 14.9352C27.9404 14.7633 28.1736 14.6667 28.4167 14.6667C28.6598 14.6667 28.893 14.7633 29.0649 14.9352C29.2368 15.1071 29.3334 15.3402 29.3334 15.5834C29.3334 15.8265 29.2368 16.0596 29.0649 16.2315C28.893 16.4034 28.6598 16.5 28.4167 16.5ZM15.5834 16.5C15.3402 16.5 15.1071 16.4034 14.9352 16.2315C14.7633 16.0596 14.6667 15.8265 14.6667 15.5834C14.6667 15.3402 14.7633 15.1071 14.9352 14.9352C15.1071 14.7633 15.3402 14.6667 15.5834 14.6667C15.8265 14.6667 16.0596 14.7633 16.2315 14.9352C16.4034 15.1071 16.5 15.3402 16.5 15.5834C16.5 15.8265 16.4034 16.0596 16.2315 16.2315C16.0596 16.4034 15.8265 16.5 15.5834 16.5Z" fill="#E6E6E6" stroke="black" stroke-width="1.5" stroke-linecap="round" stroke-linejoin="round"/>
</svg>
