<svg width="44" height="44" viewBox="0 0 44 44" fill="none" xmlns="http://www.w3.org/2000/svg">
<path d="M38.9584 22H16.3075M8.31235 22H5.04169M8.31235 22C8.31235 20.94 8.73343 19.9235 9.48295 19.1739C10.2325 18.4244 11.249 18.0033 12.309 18.0033C13.369 18.0033 14.3856 18.4244 15.1351 19.1739C15.8846 19.9235 16.3057 20.94 16.3057 22C16.3057 23.06 15.8846 24.0766 15.1351 24.8261C14.3856 25.5756 13.369 25.9967 12.309 25.9967C11.249 25.9967 10.2325 25.5756 9.48295 24.8261C8.73343 24.0766 8.31235 23.06 8.31235 22ZM38.9584 34.1128H28.4204M28.4204 34.1128C28.4204 35.1731 27.9983 36.1908 27.2486 36.9405C26.4989 37.6902 25.4821 38.1113 24.4219 38.1113C23.3619 38.1113 22.3453 37.6884 21.5958 36.9389C20.8463 36.1894 20.4252 35.1728 20.4252 34.1128M28.4204 34.1128C28.4204 33.0526 27.9983 32.0367 27.2486 31.287C26.4989 30.5373 25.4821 30.1162 24.4219 30.1162C23.3619 30.1162 22.3453 30.5372 21.5958 31.2868C20.8463 32.0363 20.4252 33.0529 20.4252 34.1128M20.4252 34.1128H5.04169M38.9584 9.88717H33.2659M25.2707 9.88717H5.04169M25.2707 9.88717C25.2707 8.82719 25.6918 7.81062 26.4413 7.0611C27.1908 6.31158 28.2074 5.8905 29.2674 5.8905C29.7922 5.8905 30.3119 5.99388 30.7968 6.19473C31.2817 6.39558 31.7223 6.68997 32.0934 7.0611C32.4645 7.43222 32.7589 7.87281 32.9598 8.35771C33.1606 8.84261 33.264 9.36232 33.264 9.88717C33.264 10.412 33.1606 10.9317 32.9598 11.4166C32.7589 11.9015 32.4645 12.3421 32.0934 12.7132C31.7223 13.0844 31.2817 13.3788 30.7968 13.5796C30.3119 13.7805 29.7922 13.8838 29.2674 13.8838C28.2074 13.8838 27.1908 13.4628 26.4413 12.7132C25.6918 11.9637 25.2707 10.9472 25.2707 9.88717Z" stroke="black" stroke-width="1.5" stroke-miterlimit="10" stroke-linecap="round"/>
</svg>
