<svg width="44" height="44" viewBox="0 0 44 44" fill="none" xmlns="http://www.w3.org/2000/svg">
<path d="M21.0834 5.5C25.7025 5.5 30.1325 7.33496 33.3988 10.6012C36.6651 13.8675 38.5 18.2975 38.5 22.9167C38.5 27.5359 36.6651 31.9658 33.3988 35.2321C30.1325 38.4984 25.7025 40.3333 21.0834 40.3333C16.4642 40.3333 12.0342 38.4984 8.76791 35.2321C5.50165 31.9658 3.66669 27.5359 3.66669 22.9167C3.66669 18.2975 5.50165 13.8675 8.76791 10.6012C12.0342 7.33496 16.4642 5.5 21.0834 5.5ZM21.0834 7.33333C16.9504 7.33333 12.9867 8.97514 10.0643 11.8976C7.14183 14.82 5.50002 18.7837 5.50002 22.9167C5.50002 27.0496 7.14183 31.0133 10.0643 33.9357C12.9867 36.8582 16.9504 38.5 21.0834 38.5C23.1298 38.5 25.1562 38.0969 27.0468 37.3138C28.9375 36.5307 30.6554 35.3828 32.1024 33.9357C33.5495 32.4887 34.6973 30.7708 35.4805 28.8801C36.2636 26.9895 36.6667 24.9631 36.6667 22.9167C36.6667 18.7837 35.0249 14.82 32.1024 11.8976C29.18 8.97514 25.2163 7.33333 21.0834 7.33333ZM20.1667 14.6667V18.3333H22V14.6667H20.1667ZM20.1667 22V31.1667H22V22H20.1667Z" fill="black"/>
</svg>
