<svg width="32" height="32" viewBox="0 0 32 32" fill="none" xmlns="http://www.w3.org/2000/svg">
<path d="M28.235 3.76497C28.0164 3.54298 27.7418 3.3842 27.4404 3.30543C27.1389 3.22666 26.8218 3.23082 26.5225 3.31747H26.5088L2.51751 10.5962C2.17677 10.6949 1.87406 10.8948 1.64952 11.1695C1.42498 11.4441 1.28921 11.7805 1.2602 12.134C1.23119 12.4876 1.31031 12.8416 1.48708 13.1492C1.66384 13.4567 1.92991 13.7033 2.25001 13.8562L12.945 19.0612L18.14 29.75C18.28 30.0496 18.5028 30.303 18.7821 30.4802C19.0614 30.6574 19.3855 30.751 19.7163 30.75C19.7663 30.75 19.8175 30.75 19.8675 30.7437C20.2218 30.7159 20.5591 30.58 20.8338 30.3545C21.1085 30.1289 21.3074 29.8246 21.4038 29.4825L28.6788 5.49122V5.47747C28.7659 5.17852 28.7706 4.86159 28.6925 4.56016C28.6144 4.25873 28.4563 3.98399 28.235 3.76497ZM27.235 5.06497L19.9663 29.0537V29.0675C19.9524 29.1172 19.9234 29.1614 19.8834 29.194C19.8434 29.2266 19.7942 29.246 19.7427 29.2496C19.6912 29.2532 19.6399 29.2407 19.5957 29.2139C19.5516 29.1871 19.5169 29.1473 19.4963 29.1L14.4113 18.6525L20.5363 12.5275C20.6059 12.4578 20.6612 12.3751 20.6989 12.284C20.7366 12.193 20.756 12.0954 20.756 11.9968C20.756 11.8983 20.7366 11.8007 20.6989 11.7097C20.6612 11.6186 20.6059 11.5359 20.5363 11.4662C20.4666 11.3965 20.3838 11.3413 20.2928 11.3036C20.2018 11.2658 20.1042 11.2464 20.0056 11.2464C19.9071 11.2464 19.8095 11.2658 19.7185 11.3036C19.6274 11.3413 19.5447 11.3965 19.475 11.4662L13.35 17.5912L2.89376 12.5C2.84742 12.4784 2.80882 12.4431 2.78315 12.3989C2.75748 12.3547 2.74599 12.3037 2.75021 12.2527C2.75443 12.2018 2.77417 12.1533 2.80677 12.114C2.83936 12.0746 2.88325 12.0461 2.93251 12.0325H2.94626L26.935 4.75997C26.9772 4.74813 27.0217 4.74793 27.064 4.75937C27.1062 4.77081 27.1446 4.79348 27.175 4.82497C27.2058 4.85583 27.2281 4.89422 27.2395 4.93632C27.2509 4.97842 27.251 5.02277 27.24 5.06497H27.235Z" fill="#848484"/>
</svg>
