<svg width="31" height="32" viewBox="0 0 31 32" fill="none" xmlns="http://www.w3.org/2000/svg">
<path d="M15.5 7.33331L14.8025 8.02665C14.8928 8.12343 15.0012 8.20041 15.121 8.25299C15.2409 8.30557 15.3698 8.33267 15.5 8.33267C15.6302 8.33267 15.7591 8.30557 15.8789 8.25299C15.9988 8.20041 16.1071 8.12343 16.1975 8.02665L15.5 7.33331ZM12.1752 24.4293C10.2171 22.836 8.07677 21.28 6.37823 19.3066C4.71456 17.3706 3.55206 15.1133 3.55206 12.1826H1.61456C1.61456 15.7373 3.04831 18.4493 4.93027 20.6346C6.77735 22.7813 9.13335 24.5013 10.9753 26L12.1752 24.4293ZM3.55206 12.1826C3.55206 9.31598 5.12144 6.91065 7.26431 5.89865C9.34648 4.91598 12.1442 5.17598 14.8025 8.02665L16.1975 6.64131C13.0458 3.25865 9.38265 2.69998 6.45831 4.07998C3.59856 5.43065 1.61456 8.56665 1.61456 12.1826H3.55206ZM10.9753 26C11.6379 26.5386 12.3483 27.112 13.0678 27.5466C13.7872 27.9813 14.6087 28.3333 15.5 28.3333V26.3333C15.0996 26.3333 14.6294 26.1733 14.0456 25.82C13.4604 25.468 12.8546 24.9826 12.1752 24.4293L10.9753 26ZM20.0247 26C21.8666 24.5 24.2226 22.7826 26.0697 20.6346C27.9516 18.448 29.3854 15.7373 29.3854 12.1826H27.4479C27.4479 15.1133 26.2854 17.3706 24.6217 19.3066C22.9232 21.28 20.7829 22.836 18.8247 24.4293L20.0247 26ZM29.3854 12.1826C29.3854 8.56665 27.4027 5.43065 24.5416 4.07998C21.6173 2.69998 17.9567 3.25865 14.8025 6.63998L16.1975 8.02665C18.8557 5.17731 21.6535 4.91598 23.7356 5.89865C25.8785 6.91065 27.4479 9.31465 27.4479 12.1826H29.3854ZM18.8247 24.4293C18.1453 24.9826 17.5395 25.468 16.9544 25.82C16.3693 26.172 15.9004 26.3333 15.5 26.3333V28.3333C16.3912 28.3333 17.2127 27.98 17.9322 27.5466C18.6529 27.112 19.3621 26.5386 20.0247 26L18.8247 24.4293Z" fill="#848484"/>
</svg>
